<svg width="141" height="28" viewBox="0 0 141 28" fill="none" xmlns="http://www.w3.org/2000/svg">
<path d="M14.3878 0L17.618 9.67376H28.0713L19.6144 15.6525L22.8447 25.3262L14.3878 19.3475L5.93085 25.3262L9.1611 15.6525L0.704186 9.67376H11.1575L14.3878 0Z" fill="#54E346"/>
<path d="M43.1633 0L46.3935 9.67376H56.8468L48.3899 15.6525L51.6202 25.3262L43.1633 19.3475L34.7064 25.3262L37.9366 15.6525L29.4797 9.67376H39.933L43.1633 0Z" fill="#54E346"/>
<path d="M71.9388 0L75.169 9.67376H85.6223L77.1654 15.6525L80.3957 25.3262L71.9388 19.3475L63.4819 25.3262L66.7121 15.6525L58.2552 9.67376H68.7085L71.9388 0Z" fill="#54E346"/>
<path d="M100.714 0L103.945 9.67376H114.398L105.941 15.6525L109.171 25.3262L100.714 19.3475L92.2574 25.3262L95.4876 15.6525L87.0307 9.67376H97.484L100.714 0Z" fill="#54E346"/>
<path d="M126.612 0L129.842 9.67376H140.296L131.839 15.6525L135.069 25.3262L126.612 19.3475L118.155 25.3262L121.386 15.6525L112.929 9.67376H123.382L126.612 0Z" fill="#54E346"/>
</svg>
