<svg width="392" height="121" viewBox="0 0 392 121" fill="none" xmlns="http://www.w3.org/2000/svg">
<path d="M22.6406 40.3203V44H4.57031V40.3203H22.6406ZM5.48438 9.875V44H0.960938V9.875H5.48438ZM20.25 24.5469V28.2266H4.57031V24.5469H20.25ZM22.4062 9.875V13.5781H4.57031V9.875H22.4062ZM29.6719 9.875H34.0547L45.2344 37.6953L56.3906 9.875H60.7969L46.9219 44H43.5L29.6719 9.875ZM28.2422 9.875H32.1094L32.7422 30.6875V44H28.2422V9.875ZM58.3359 9.875H62.2031V44H57.7031V30.6875L58.3359 9.875ZM82.7344 30.6172H73.6172V26.9375H82.7344C84.5 26.9375 85.9297 26.6562 87.0234 26.0938C88.1172 25.5312 88.9141 24.75 89.4141 23.75C89.9297 22.75 90.1875 21.6094 90.1875 20.3281C90.1875 19.1562 89.9297 18.0547 89.4141 17.0234C88.9141 15.9922 88.1172 15.1641 87.0234 14.5391C85.9297 13.8984 84.5 13.5781 82.7344 13.5781H74.6719V44H70.1484V9.875H82.7344C85.3125 9.875 87.4922 10.3203 89.2734 11.2109C91.0547 12.1016 92.4062 13.3359 93.3281 14.9141C94.25 16.4766 94.7109 18.2656 94.7109 20.2812C94.7109 22.4688 94.25 24.3359 93.3281 25.8828C92.4062 27.4297 91.0547 28.6094 89.2734 29.4219C87.4922 30.2188 85.3125 30.6172 82.7344 30.6172ZM100.43 9.875H111.727C114.289 9.875 116.453 10.2656 118.219 11.0469C120 11.8281 121.352 12.9844 122.273 14.5156C123.211 16.0312 123.68 17.8984 123.68 20.1172C123.68 21.6797 123.359 23.1094 122.719 24.4062C122.094 25.6875 121.188 26.7812 120 27.6875C118.828 28.5781 117.422 29.2422 115.781 29.6797L114.516 30.1719H103.898L103.852 26.4922H111.867C113.492 26.4922 114.844 26.2109 115.922 25.6484C117 25.0703 117.812 24.2969 118.359 23.3281C118.906 22.3594 119.18 21.2891 119.18 20.1172C119.18 18.8047 118.922 17.6562 118.406 16.6719C117.891 15.6875 117.078 14.9297 115.969 14.3984C114.875 13.8516 113.461 13.5781 111.727 13.5781H104.953V44H100.43V9.875ZM120.375 44L112.078 28.5312L116.789 28.5078L125.203 43.7188V44H120.375ZM151.688 40.3203V44H133.617V40.3203H151.688ZM134.531 9.875V44H130.008V9.875H134.531ZM149.297 24.5469V28.2266H133.617V24.5469H149.297ZM151.453 9.875V13.5781H133.617V9.875H151.453ZM175.477 35.375C175.477 34.5781 175.352 33.875 175.102 33.2656C174.867 32.6406 174.445 32.0781 173.836 31.5781C173.242 31.0781 172.414 30.6016 171.352 30.1484C170.305 29.6953 168.977 29.2344 167.367 28.7656C165.68 28.2656 164.156 27.7109 162.797 27.1016C161.438 26.4766 160.273 25.7656 159.305 24.9688C158.336 24.1719 157.594 23.2578 157.078 22.2266C156.562 21.1953 156.305 20.0156 156.305 18.6875C156.305 17.3594 156.578 16.1328 157.125 15.0078C157.672 13.8828 158.453 12.9062 159.469 12.0781C160.5 11.2344 161.727 10.5781 163.148 10.1094C164.57 9.64062 166.156 9.40625 167.906 9.40625C170.469 9.40625 172.641 9.89844 174.422 10.8828C176.219 11.8516 177.586 13.125 178.523 14.7031C179.461 16.2656 179.93 17.9375 179.93 19.7188H175.43C175.43 18.4375 175.156 17.3047 174.609 16.3203C174.062 15.3203 173.234 14.5391 172.125 13.9766C171.016 13.3984 169.609 13.1094 167.906 13.1094C166.297 13.1094 164.969 13.3516 163.922 13.8359C162.875 14.3203 162.094 14.9766 161.578 15.8047C161.078 16.6328 160.828 17.5781 160.828 18.6406C160.828 19.3594 160.977 20.0156 161.273 20.6094C161.586 21.1875 162.062 21.7266 162.703 22.2266C163.359 22.7266 164.188 23.1875 165.188 23.6094C166.203 24.0312 167.414 24.4375 168.82 24.8281C170.758 25.375 172.43 25.9844 173.836 26.6562C175.242 27.3281 176.398 28.0859 177.305 28.9297C178.227 29.7578 178.906 30.7031 179.344 31.7656C179.797 32.8125 180.023 34 180.023 35.3281C180.023 36.7188 179.742 37.9766 179.18 39.1016C178.617 40.2266 177.812 41.1875 176.766 41.9844C175.719 42.7812 174.461 43.3984 172.992 43.8359C171.539 44.2578 169.914 44.4688 168.117 44.4688C166.539 44.4688 164.984 44.25 163.453 43.8125C161.938 43.375 160.555 42.7188 159.305 41.8438C158.07 40.9688 157.078 39.8906 156.328 38.6094C155.594 37.3125 155.227 35.8125 155.227 34.1094H159.727C159.727 35.2812 159.953 36.2891 160.406 37.1328C160.859 37.9609 161.477 38.6484 162.258 39.1953C163.055 39.7422 163.953 40.1484 164.953 40.4141C165.969 40.6641 167.023 40.7891 168.117 40.7891C169.695 40.7891 171.031 40.5703 172.125 40.1328C173.219 39.6953 174.047 39.0703 174.609 38.2578C175.188 37.4453 175.477 36.4844 175.477 35.375ZM198.422 12.8984L187.125 44H182.508L195.516 9.875H198.492L198.422 12.8984ZM207.891 44L196.57 12.8984L196.5 9.875H199.477L212.531 44H207.891ZM207.305 31.3672V35.0703H188.133V31.3672H207.305ZM243.328 34.0391V9.875H247.828V34.0391C247.828 36.2891 247.367 38.1875 246.445 39.7344C245.523 41.2812 244.25 42.4609 242.625 43.2734C241.016 44.0703 239.164 44.4688 237.07 44.4688C234.977 44.4688 233.117 44.1094 231.492 43.3906C229.867 42.6719 228.594 41.5781 227.672 40.1094C226.75 38.6406 226.289 36.7891 226.289 34.5547H230.812C230.812 35.9922 231.078 37.1719 231.609 38.0938C232.141 39.0156 232.875 39.6953 233.812 40.1328C234.766 40.5703 235.852 40.7891 237.07 40.7891C238.258 40.7891 239.32 40.5391 240.258 40.0391C241.211 39.5234 241.961 38.7656 242.508 37.7656C243.055 36.75 243.328 35.5078 243.328 34.0391ZM275.016 9.875H279.516V32.9609C279.516 35.5234 278.945 37.6562 277.805 39.3594C276.664 41.0625 275.148 42.3438 273.258 43.2031C271.383 44.0469 269.344 44.4688 267.141 44.4688C264.828 44.4688 262.734 44.0469 260.859 43.2031C259 42.3438 257.523 41.0625 256.43 39.3594C255.352 37.6562 254.812 35.5234 254.812 32.9609V9.875H259.289V32.9609C259.289 34.7422 259.617 36.2109 260.273 37.3672C260.93 38.5234 261.844 39.3828 263.016 39.9453C264.203 40.5078 265.578 40.7891 267.141 40.7891C268.719 40.7891 270.094 40.5078 271.266 39.9453C272.453 39.3828 273.375 38.5234 274.031 37.3672C274.688 36.2109 275.016 34.7422 275.016 32.9609V9.875ZM264.773 7.60156L269.32 0.710938H274.547L268.266 7.60156H264.773ZM312.867 9.875V44H308.32L291.141 17.6797V44H286.617V9.875H291.141L308.391 36.2656V9.875H312.867ZM325.734 9.875V44H321.211V9.875H325.734ZM360.234 25.8594V28.0156C360.234 30.5781 359.914 32.875 359.273 34.9062C358.633 36.9375 357.711 38.6641 356.508 40.0859C355.305 41.5078 353.859 42.5938 352.172 43.3438C350.5 44.0938 348.625 44.4688 346.547 44.4688C344.531 44.4688 342.68 44.0938 340.992 43.3438C339.32 42.5938 337.867 41.5078 336.633 40.0859C335.414 38.6641 334.469 36.9375 333.797 34.9062C333.125 32.875 332.789 30.5781 332.789 28.0156V25.8594C332.789 23.2969 333.117 21.0078 333.773 18.9922C334.445 16.9609 335.391 15.2344 336.609 13.8125C337.828 12.375 339.273 11.2812 340.945 10.5312C342.633 9.78125 344.484 9.40625 346.5 9.40625C348.578 9.40625 350.453 9.78125 352.125 10.5312C353.812 11.2812 355.258 12.375 356.461 13.8125C357.68 15.2344 358.609 16.9609 359.25 18.9922C359.906 21.0078 360.234 23.2969 360.234 25.8594ZM355.758 28.0156V25.8125C355.758 23.7812 355.547 21.9844 355.125 20.4219C354.719 18.8594 354.117 17.5469 353.32 16.4844C352.523 15.4219 351.547 14.6172 350.391 14.0703C349.25 13.5234 347.953 13.25 346.5 13.25C345.094 13.25 343.82 13.5234 342.68 14.0703C341.555 14.6172 340.586 15.4219 339.773 16.4844C338.977 17.5469 338.359 18.8594 337.922 20.4219C337.484 21.9844 337.266 23.7812 337.266 25.8125V28.0156C337.266 30.0625 337.484 31.875 337.922 33.4531C338.359 35.0156 338.984 36.3359 339.797 37.4141C340.625 38.4766 341.602 39.2812 342.727 39.8281C343.867 40.375 345.141 40.6484 346.547 40.6484C348.016 40.6484 349.32 40.375 350.461 39.8281C351.602 39.2812 352.562 38.4766 353.344 37.4141C354.141 36.3359 354.742 35.0156 355.148 33.4531C355.555 31.875 355.758 30.0625 355.758 28.0156ZM367.008 9.875H378.305C380.867 9.875 383.031 10.2656 384.797 11.0469C386.578 11.8281 387.93 12.9844 388.852 14.5156C389.789 16.0312 390.258 17.8984 390.258 20.1172C390.258 21.6797 389.938 23.1094 389.297 24.4062C388.672 25.6875 387.766 26.7812 386.578 27.6875C385.406 28.5781 384 29.2422 382.359 29.6797L381.094 30.1719H370.477L370.43 26.4922H378.445C380.07 26.4922 381.422 26.2109 382.5 25.6484C383.578 25.0703 384.391 24.2969 384.938 23.3281C385.484 22.3594 385.758 21.2891 385.758 20.1172C385.758 18.8047 385.5 17.6562 384.984 16.6719C384.469 15.6875 383.656 14.9297 382.547 14.3984C381.453 13.8516 380.039 13.5781 378.305 13.5781H371.531V44H367.008V9.875ZM386.953 44L378.656 28.5312L383.367 28.5078L391.781 43.7188V44H386.953ZM38.2812 74.5V120H28.125L10.9375 90.5938V120H0.75V74.5H10.9375L28.1562 103.906V74.5H38.2812ZM76.75 112.125V120H52.5312V112.125H76.75ZM56 74.5V120H45.8125V74.5H56ZM73.625 92.8125V100.438H52.5312V92.8125H73.625ZM76.7812 74.5V82.4062H52.5312V74.5H76.7812ZM90.375 74.5L98.375 90L106.375 74.5H118L105.062 97.0625L118.344 120H106.625L98.375 104.219L90.1562 120H78.4062L91.7188 97.0625L78.75 74.5H90.375ZM143.688 74.5V120H133.531V74.5H143.688ZM157.531 74.5V82.4062H119.969V74.5H157.531ZM200.344 108C200.344 107.229 200.229 106.542 200 105.938C199.771 105.312 199.354 104.74 198.75 104.219C198.146 103.698 197.292 103.177 196.188 102.656C195.083 102.115 193.635 101.562 191.844 101C189.802 100.333 187.854 99.5833 186 98.75C184.167 97.8958 182.531 96.9062 181.094 95.7812C179.656 94.6562 178.521 93.3438 177.688 91.8438C176.875 90.3438 176.469 88.5938 176.469 86.5938C176.469 84.6562 176.896 82.9062 177.75 81.3438C178.604 79.7812 179.802 78.4479 181.344 77.3438C182.885 76.2188 184.698 75.3646 186.781 74.7812C188.865 74.1771 191.156 73.875 193.656 73.875C196.99 73.875 199.917 74.4688 202.438 75.6562C204.979 76.8229 206.958 78.4688 208.375 80.5938C209.792 82.6979 210.5 85.1458 210.5 87.9375H200.375C200.375 86.7083 200.115 85.625 199.594 84.6875C199.094 83.7292 198.323 82.9792 197.281 82.4375C196.26 81.8958 194.979 81.625 193.438 81.625C191.938 81.625 190.677 81.8542 189.656 82.3125C188.656 82.75 187.896 83.3542 187.375 84.125C186.875 84.8958 186.625 85.7396 186.625 86.6562C186.625 87.3854 186.812 88.0521 187.188 88.6562C187.583 89.2396 188.146 89.7917 188.875 90.3125C189.625 90.8125 190.542 91.2917 191.625 91.75C192.708 92.2083 193.948 92.6458 195.344 93.0625C197.781 93.8333 199.938 94.6875 201.812 95.625C203.708 96.5625 205.302 97.625 206.594 98.8125C207.885 100 208.854 101.344 209.5 102.844C210.167 104.344 210.5 106.042 210.5 107.938C210.5 109.958 210.104 111.75 209.312 113.312C208.542 114.875 207.417 116.208 205.938 117.312C204.479 118.396 202.729 119.219 200.688 119.781C198.646 120.344 196.365 120.625 193.844 120.625C191.552 120.625 189.292 120.333 187.062 119.75C184.833 119.146 182.812 118.229 181 117C179.208 115.771 177.771 114.208 176.688 112.312C175.625 110.396 175.094 108.125 175.094 105.5H185.281C185.281 106.875 185.479 108.042 185.875 109C186.271 109.938 186.833 110.698 187.562 111.281C188.312 111.865 189.219 112.281 190.281 112.531C191.344 112.781 192.531 112.906 193.844 112.906C195.365 112.906 196.594 112.698 197.531 112.281C198.49 111.844 199.198 111.25 199.656 110.5C200.115 109.75 200.344 108.917 200.344 108ZM237.688 74.5V120H227.531V74.5H237.688ZM251.531 74.5V82.4062H213.969V74.5H251.531ZM287.5 112.125V120H263.281V112.125H287.5ZM266.75 74.5V120H256.562V74.5H266.75ZM284.375 92.8125V100.438H263.281V92.8125H284.375ZM287.531 74.5V82.4062H263.281V74.5H287.531ZM310.438 104.188H299V96.2812H310.438C312.125 96.2812 313.479 96 314.5 95.4375C315.542 94.875 316.302 94.1042 316.781 93.125C317.281 92.125 317.531 91 317.531 89.75C317.531 88.4583 317.281 87.2604 316.781 86.1562C316.302 85.0312 315.542 84.125 314.5 83.4375C313.479 82.75 312.125 82.4062 310.438 82.4062H302.688V120H292.5V74.5H310.438C314.062 74.5 317.167 75.1562 319.75 76.4688C322.354 77.7812 324.344 79.5833 325.719 81.875C327.115 84.1458 327.812 86.75 327.812 89.6875C327.812 92.625 327.115 95.1771 325.719 97.3438C324.344 99.5104 322.354 101.198 319.75 102.406C317.167 103.594 314.062 104.188 310.438 104.188Z" fill="#54E346"/>
</svg>
