<svg width="34" height="34" viewBox="0 0 34 34" fill="none" xmlns="http://www.w3.org/2000/svg">
<path d="M20.1166 4.07291C18.3789 4.07291 16.7124 4.76321 15.4836 5.99197C14.2549 7.22072 13.5646 8.88727 13.5646 10.625V14.2729H10.0583C9.88227 14.2729 9.73956 14.4156 9.73956 14.5917V19.4083C9.73956 19.5844 9.88227 19.7271 10.0583 19.7271H13.5646V29.6083C13.5646 29.7844 13.7073 29.9271 13.8833 29.9271H18.7C18.876 29.9271 19.0187 29.7844 19.0187 29.6083V19.7271H22.556C22.7023 19.7271 22.8298 19.6275 22.8653 19.4856L24.0694 14.669C24.1197 14.4678 23.9676 14.2729 23.7602 14.2729H19.0187V10.625C19.0187 10.3338 19.1344 10.0545 19.3403 9.84865C19.5462 9.64275 19.8255 9.52707 20.1166 9.52707H23.8C23.976 9.52707 24.1187 9.38436 24.1187 9.20832V4.39166C24.1187 4.21562 23.976 4.07291 23.8 4.07291H20.1166Z" fill="#54E346"/>
</svg>
