<svg width="34" height="34" viewBox="0 0 34 34" fill="none" xmlns="http://www.w3.org/2000/svg">
<path d="M17 12.3958C14.4572 12.3958 12.3958 14.4572 12.3958 17C12.3958 19.5428 14.4572 21.6042 17 21.6042C19.5428 21.6042 21.6042 19.5428 21.6042 17C21.6042 14.4572 19.5428 12.3958 17 12.3958Z" fill="#54E346"/>
<path fill-rule="evenodd" clip-rule="evenodd" d="M9.59019 4.36543C14.475 3.81948 19.525 3.81948 24.4099 4.36543C27.0993 4.66601 29.2685 6.78503 29.5841 9.48385C30.1682 14.4776 30.1682 19.5224 29.5841 24.5162C29.2685 27.215 27.0993 29.334 24.4099 29.6346C19.525 30.1805 14.475 30.1805 9.59019 29.6346C6.9008 29.334 4.73161 27.215 4.41595 24.5162C3.83189 19.5224 3.83189 14.4776 4.41595 9.48385C4.73161 6.78503 6.9008 4.66601 9.59019 4.36543ZM24.0833 8.50001C23.3009 8.50001 22.6667 9.13428 22.6667 9.91668C22.6667 10.6991 23.3009 11.3333 24.0833 11.3333C24.8657 11.3333 25.5 10.6991 25.5 9.91668C25.5 9.13428 24.8657 8.50001 24.0833 8.50001ZM10.2708 17C10.2708 13.2836 13.2836 10.2708 17 10.2708C20.7164 10.2708 23.7292 13.2836 23.7292 17C23.7292 20.7164 20.7164 23.7292 17 23.7292C13.2836 23.7292 10.2708 20.7164 10.2708 17Z" fill="#54E346"/>
</svg>
