<svg width="186" height="45" viewBox="0 0 186 45" fill="none" xmlns="http://www.w3.org/2000/svg">
<path d="M9.232 17.48L6.592 12.2H6.352L7.12 17.48V35H0.88V1.16H5.68L18.4 19.064L20.944 24.2H21.184L20.416 19.064V1.4H26.656V35.24H21.856L9.232 17.48ZM51.4829 32.936C50.5229 33.704 49.2109 34.36 47.5469 34.904C45.9149 35.416 44.1709 35.672 42.3149 35.672C38.4429 35.672 35.6109 34.552 33.8189 32.312C32.0269 30.04 31.1309 26.936 31.1309 23C31.1309 18.776 32.1389 15.608 34.1549 13.496C36.1709 11.384 39.0029 10.328 42.6509 10.328C43.8669 10.328 45.0509 10.488 46.2029 10.808C47.3549 11.128 48.3789 11.656 49.2749 12.392C50.1709 13.128 50.8909 14.12 51.4349 15.368C51.9789 16.616 52.2509 18.168 52.2509 20.024C52.2509 20.696 52.2029 21.416 52.1069 22.184C52.0429 22.952 51.9309 23.752 51.7709 24.584H37.3709C37.4669 26.6 37.9789 28.12 38.9069 29.144C39.8669 30.168 41.4029 30.68 43.5149 30.68C44.8269 30.68 45.9949 30.488 47.0189 30.104C48.0749 29.688 48.8749 29.272 49.4189 28.856L51.4829 32.936ZM42.5549 15.32C40.9229 15.32 39.7069 15.816 38.9069 16.808C38.1389 17.768 37.6749 19.064 37.5149 20.696H46.4429C46.5709 18.968 46.2989 17.64 45.6269 16.712C44.9869 15.784 43.9629 15.32 42.5549 15.32ZM61.0506 22.712L53.8506 11H61.2906L64.4106 16.136L65.7546 19.496L67.1946 16.136L70.4586 11H77.2266L69.9786 22.52L77.7066 35H70.4586L66.7626 29.24L65.3226 25.688L63.7866 29.24L60.0906 35H53.2746L61.0506 22.712ZM78.3494 11H81.6614V6.488L87.9014 4.712V11H93.7574V16.28H87.9014V25.496C87.9014 27.16 88.0614 28.36 88.3814 29.096C88.7334 29.8 89.3734 30.152 90.3014 30.152C90.9414 30.152 91.4854 30.088 91.9334 29.96C92.4134 29.832 92.9414 29.64 93.5174 29.384L94.6214 34.184C93.7574 34.6 92.7494 34.952 91.5974 35.24C90.4454 35.528 89.2774 35.672 88.0934 35.672C85.8854 35.672 84.2534 35.112 83.1974 33.992C82.1734 32.84 81.6614 30.968 81.6614 28.376V16.28H78.3494V11ZM112.22 25.976C112.22 24.952 111.836 24.12 111.068 23.48C110.332 22.84 109.388 22.264 108.236 21.752C107.116 21.208 105.884 20.664 104.54 20.12C103.228 19.544 101.996 18.856 100.844 18.056C99.7238 17.224 98.7798 16.2 98.0117 14.984C97.2758 13.768 96.9078 12.216 96.9078 10.328C96.9078 8.696 97.1798 7.288 97.7238 6.104C98.2678 4.888 99.0358 3.88 100.028 3.08C101.052 2.28 102.252 1.688 103.628 1.304C105.004 0.919998 106.54 0.727998 108.236 0.727998C110.188 0.727998 112.028 0.903998 113.756 1.256C115.484 1.576 116.908 2.056 118.028 2.696L115.964 8.216C115.26 7.768 114.204 7.368 112.796 7.016C111.388 6.632 109.868 6.44 108.236 6.44C106.7 6.44 105.516 6.744 104.684 7.352C103.884 7.96 103.484 8.776 103.484 9.8C103.484 10.76 103.852 11.56 104.588 12.2C105.356 12.84 106.3 13.432 107.42 13.976C108.572 14.52 109.804 15.08 111.116 15.656C112.46 16.232 113.692 16.936 114.812 17.768C115.964 18.568 116.908 19.576 117.644 20.792C118.412 21.976 118.796 23.464 118.796 25.256C118.796 27.048 118.492 28.6 117.884 29.912C117.308 31.192 116.476 32.264 115.388 33.128C114.332 33.992 113.036 34.632 111.5 35.048C109.996 35.464 108.332 35.672 106.508 35.672C104.108 35.672 101.996 35.448 100.172 35C98.3478 34.552 97.0038 34.104 96.1398 33.656L98.2518 28.04C98.6038 28.232 99.0518 28.44 99.5958 28.664C100.172 28.888 100.812 29.096 101.516 29.288C102.22 29.48 102.956 29.64 103.724 29.768C104.524 29.896 105.34 29.96 106.172 29.96C108.124 29.96 109.612 29.64 110.636 29C111.692 28.328 112.22 27.32 112.22 25.976ZM120.537 11H123.849V6.488L130.089 4.712V11H135.945V16.28H130.089V25.496C130.089 27.16 130.249 28.36 130.569 29.096C130.921 29.8 131.561 30.152 132.489 30.152C133.129 30.152 133.673 30.088 134.121 29.96C134.601 29.832 135.129 29.64 135.705 29.384L136.809 34.184C135.945 34.6 134.937 34.952 133.785 35.24C132.633 35.528 131.465 35.672 130.281 35.672C128.073 35.672 126.441 35.112 125.385 33.992C124.361 32.84 123.849 30.968 123.849 28.376V16.28H120.537V11ZM158.733 32.936C157.773 33.704 156.461 34.36 154.797 34.904C153.165 35.416 151.421 35.672 149.565 35.672C145.693 35.672 142.861 34.552 141.069 32.312C139.277 30.04 138.381 26.936 138.381 23C138.381 18.776 139.389 15.608 141.405 13.496C143.421 11.384 146.253 10.328 149.901 10.328C151.117 10.328 152.301 10.488 153.453 10.808C154.605 11.128 155.629 11.656 156.525 12.392C157.421 13.128 158.141 14.12 158.685 15.368C159.229 16.616 159.501 18.168 159.501 20.024C159.501 20.696 159.453 21.416 159.357 22.184C159.293 22.952 159.181 23.752 159.021 24.584H144.621C144.717 26.6 145.229 28.12 146.157 29.144C147.117 30.168 148.653 30.68 150.765 30.68C152.077 30.68 153.245 30.488 154.269 30.104C155.325 29.688 156.125 29.272 156.669 28.856L158.733 32.936ZM149.805 15.32C148.173 15.32 146.957 15.816 146.157 16.808C145.389 17.768 144.925 19.064 144.765 20.696H153.693C153.821 18.968 153.549 17.64 152.877 16.712C152.237 15.784 151.213 15.32 149.805 15.32ZM163.908 11H168.468L169.188 13.88H169.38C170.212 12.664 171.188 11.768 172.308 11.192C173.46 10.616 174.852 10.328 176.484 10.328C179.492 10.328 181.748 11.288 183.252 13.208C184.756 15.096 185.508 18.152 185.508 22.376C185.508 24.424 185.268 26.28 184.788 27.944C184.308 29.576 183.588 30.968 182.628 32.12C181.7 33.272 180.548 34.152 179.172 34.76C177.828 35.368 176.276 35.672 174.516 35.672C173.524 35.672 172.708 35.592 172.068 35.432C171.428 35.304 170.788 35.08 170.148 34.76V44.6H163.908V11ZM174.612 15.608C173.396 15.608 172.436 15.912 171.732 16.52C171.06 17.128 170.532 18.04 170.148 19.256V29.24C170.596 29.592 171.076 29.88 171.588 30.104C172.132 30.296 172.836 30.392 173.7 30.392C175.492 30.392 176.836 29.768 177.732 28.52C178.628 27.24 179.076 25.144 179.076 22.232C179.076 20.12 178.724 18.488 178.02 17.336C177.316 16.184 176.18 15.608 174.612 15.608Z" fill="#54E346"/>
</svg>
