<svg width="487" height="419" viewBox="0 0 487 419" fill="none" xmlns="http://www.w3.org/2000/svg">
<g clip-path="url(#clip0_43_81)">
<path d="M155.546 57.8561C151.631 36.911 157.795 13.0824 174.925 0.404297C173.954 23.5553 181.206 46.3034 195.398 64.6238C200.897 71.6694 207.746 78.9334 207.534 87.8672C207.401 93.426 204.394 98.6046 200.431 102.506C196.468 106.407 191.586 109.22 186.762 111.989L186.011 113.157C171.872 97.2129 159.461 78.8012 155.546 57.8561Z" fill="#F0F0F0"/>
<path d="M175.237 0.72453C168.04 16.8268 166.101 34.7868 169.696 52.0534C170.404 55.7842 171.696 59.3802 173.524 62.709C175.409 65.8941 178.113 68.5163 181.356 70.3032C184.345 72.03 187.603 73.4503 190.121 75.8736C191.391 77.1331 192.38 78.6468 193.024 80.3154C193.668 81.9841 193.952 83.77 193.857 85.556C193.737 90.0124 192.022 94.1597 190.204 98.1572C188.185 102.596 186.017 107.174 186.148 112.164C186.164 112.768 185.225 112.758 185.209 112.154C184.981 103.472 191.26 96.4997 192.659 88.1692C193.312 84.2821 192.797 80.1747 190.063 77.1616C187.672 74.5268 184.314 73.0593 181.272 71.337C178.084 69.6402 175.359 67.1887 173.337 64.1967C171.346 60.9717 169.917 57.4315 169.114 53.7276C167.172 45.4176 166.549 36.8541 167.268 28.3508C168.035 18.6414 170.458 9.13476 174.431 0.242069C174.677 -0.308231 175.482 0.177817 175.237 0.724518L175.237 0.72453Z" fill="white"/>
<path d="M168.211 46.5618C165.231 46.7715 162.274 45.9155 159.867 44.1466C157.461 42.3778 155.761 39.8113 155.073 36.9056C154.936 36.3171 155.844 36.0762 155.981 36.6654C156.617 39.3724 158.201 41.7629 160.445 43.4055C162.69 45.0481 165.448 45.8345 168.221 45.6228C168.824 45.5775 168.811 46.5168 168.211 46.5618Z" fill="white"/>
<path d="M179.724 69.6273C183.77 65.0544 185.942 59.1254 185.808 53.0225C185.795 52.4179 186.734 52.4285 186.748 53.0324C186.875 59.3834 184.602 65.5489 180.382 70.2982C179.979 70.7506 179.324 70.0772 179.724 69.6273Z" fill="white"/>
<path d="M169.136 19.2246C170.305 19.3836 171.496 19.2497 172.602 18.8349C173.707 18.42 174.692 17.7372 175.468 16.8478C175.865 16.3905 176.519 17.0645 176.125 17.5188C175.263 18.4975 174.175 19.2502 172.954 19.7112C171.734 20.1723 170.42 20.3276 169.126 20.1636C169.002 20.1584 168.886 20.1064 168.799 20.0183C168.713 19.9302 168.664 19.8125 168.661 19.6892C168.663 19.5648 168.714 19.4463 168.803 19.3593C168.892 19.2723 169.011 19.2239 169.136 19.2246Z" fill="white"/>
<path d="M244.98 17.7291C244.74 18.0217 244.501 18.3142 244.263 18.6145C241.063 22.5646 238.19 26.7681 235.671 31.1834C235.471 31.5217 235.273 31.8675 235.083 32.2108C229.128 42.913 225.213 54.6274 223.536 66.7585C222.873 71.5863 222.578 76.4576 222.654 81.3302C222.76 88.0593 223.411 95.347 221.347 101.536C221.139 102.184 220.891 102.819 220.605 103.436L187.494 113.982C187.407 113.968 187.322 113.962 187.234 113.948L185.932 114.43C185.91 114.179 185.893 113.918 185.872 113.667C185.859 113.521 185.853 113.374 185.84 113.228C185.833 113.13 185.827 113.032 185.816 112.944C185.814 112.912 185.812 112.879 185.812 112.854C185.801 112.766 185.799 112.683 185.791 112.603C185.692 111.146 185.601 109.686 185.525 108.221C185.523 108.213 185.523 108.213 185.528 108.203C184.96 97.0462 185.318 85.7438 187.381 74.855C187.443 74.5274 187.503 74.1924 187.58 73.86C188.537 68.957 189.894 64.1405 191.636 59.4584C192.598 56.8977 193.689 54.3874 194.905 51.937C198.06 45.6117 202.19 39.8217 207.144 34.7793C217.022 24.7289 230.005 17.9485 243.917 17.735C244.273 17.7298 244.621 17.7267 244.98 17.7291Z" fill="#F0F0F0"/>
<path d="M245.039 18.173C229.595 26.698 217.23 39.8711 209.701 55.8211C208.02 59.226 206.885 62.8746 206.34 66.6327C205.927 70.3106 206.507 74.032 208.02 77.4101C209.367 80.5882 211.113 83.6831 211.663 87.1331C211.919 88.9033 211.797 90.7075 211.306 92.4275C210.816 94.1474 209.967 95.7442 208.815 97.1131C206.035 100.599 202.168 102.878 198.309 104.975C194.024 107.304 189.536 109.655 186.635 113.718C186.284 114.21 185.54 113.636 185.891 113.145C190.938 106.076 200.15 104.288 206.285 98.4783C209.147 95.7675 211.209 92.1781 210.841 88.1269C210.52 84.5843 208.722 81.3913 207.33 78.1852C205.806 74.9114 205.108 71.3144 205.295 67.7084C205.647 63.9347 206.639 60.2484 208.228 56.8075C211.683 49.0036 216.343 41.7913 222.038 35.4346C228.498 28.1438 236.158 22.0113 244.686 17.3026C245.214 17.0114 245.564 17.8837 245.039 18.173Z" fill="white"/>
<path d="M211.823 50.5426C209.318 48.9165 207.472 46.4531 206.616 43.5923C205.759 40.7314 205.948 37.6594 207.149 34.9249C207.393 34.3725 208.264 34.7267 208.019 35.2799C206.896 37.8242 206.72 40.6858 207.523 43.3482C208.326 46.0106 210.055 48.2984 212.397 49.7987C212.905 50.1253 212.329 50.8673 211.823 50.5426Z" fill="white"/>
<path d="M207.124 75.8886C213.108 74.6721 218.414 71.2456 221.983 66.2924C222.336 65.8014 223.079 66.3752 222.727 66.8657C219.003 72.0131 213.475 75.5677 207.245 76.8199C206.651 76.9389 206.534 76.0069 207.124 75.8886V75.8886Z" fill="white"/>
<path d="M229.025 29.2718C229.864 30.1029 230.895 30.7128 232.028 31.0468C233.16 31.3808 234.358 31.4285 235.513 31.1854C236.105 31.059 236.222 31.9912 235.634 32.1167C234.356 32.3793 233.033 32.3251 231.781 31.9588C230.53 31.5925 229.386 30.9254 228.452 30.0156C228.357 29.9372 228.295 29.8255 228.279 29.7032C228.263 29.5809 228.294 29.4571 228.367 29.357C228.443 29.2589 228.555 29.1949 228.678 29.179C228.802 29.163 228.926 29.1963 229.025 29.2717V29.2718Z" fill="white"/>
<path d="M35.6778 371.481C55.3821 371.481 71.3556 355.512 71.3556 335.814C71.3556 316.117 55.3821 300.148 35.6778 300.148C15.9735 300.148 0 316.117 0 335.814C0 355.512 15.9735 371.481 35.6778 371.481Z" fill="#F0F0F0"/>
<path d="M350.953 212.048L92.4011 330.716C88.7209 332.4 84.5227 332.556 80.7275 331.15C76.9323 329.744 73.8502 326.89 72.1573 323.214L8.35303 184.288C6.66843 180.609 6.51242 176.412 7.91925 172.618C9.32608 168.825 12.1809 165.743 15.8573 164.051L274.409 45.3831C278.089 43.699 282.287 43.5431 286.083 44.9495C289.878 46.3558 292.96 49.2097 294.653 52.8849L358.457 191.811C360.142 195.49 360.298 199.687 358.891 203.481C357.484 207.275 354.629 210.356 350.953 212.048Z" fill="white"/>
<path d="M20.1577 173.415C18.9634 173.965 18.0359 174.966 17.5789 176.198C17.1219 177.431 17.1726 178.794 17.7199 179.989L81.5241 318.915C82.0741 320.109 83.0754 321.036 84.3083 321.493C85.5412 321.95 86.9051 321.9 88.1006 321.352L346.652 202.685C347.847 202.135 348.774 201.134 349.231 199.901C349.688 198.669 349.638 197.305 349.09 196.11L285.286 57.184C284.736 55.9901 283.735 55.063 282.502 54.6061C281.269 54.1492 279.905 54.1999 278.709 54.747L20.1577 173.415Z" fill="#E4E4E4"/>
<path d="M350.953 212.048L92.4011 330.716C88.7209 332.4 84.5227 332.556 80.7275 331.15C76.9323 329.744 73.8502 326.89 72.1573 323.214L8.35303 184.288C6.66843 180.609 6.51242 176.412 7.91925 172.618C9.32608 168.825 12.1809 165.743 15.8573 164.051L274.409 45.3831C278.089 43.699 282.287 43.5431 286.083 44.9495C289.878 46.3558 292.96 49.2097 294.653 52.8849L358.457 191.811C360.142 195.49 360.298 199.687 358.891 203.481C357.484 207.275 354.629 210.356 350.953 212.048ZM16.5188 165.492C13.2242 167.008 10.666 169.769 9.40527 173.169C8.14457 176.569 8.2844 180.33 9.79407 183.627L73.5983 322.553C75.1154 325.847 77.8774 328.404 81.2784 329.664C84.6794 330.925 88.4415 330.785 91.7395 329.276L350.291 210.608C353.586 209.091 356.144 206.33 357.405 202.93C358.666 199.53 358.526 195.769 357.016 192.472L293.212 53.5463C291.695 50.2528 288.933 47.6954 285.532 46.4351C282.131 45.1748 278.369 45.3145 275.071 46.8237L16.5188 165.492Z" fill="#CACACA"/>
<path d="M286.347 149.006L80.9432 243.28C79.2889 244.037 77.4413 244.264 75.6527 243.932C73.8641 243.6 72.2217 242.724 70.9496 241.424L10.8526 179.814C9.86702 178.803 9.13846 177.571 8.7282 176.221C8.31794 174.87 8.23797 173.441 8.495 172.054C8.75204 170.666 9.33858 169.36 10.2053 168.246C11.072 167.132 12.1936 166.242 13.4758 165.651L276.713 44.3429C277.979 43.7601 279.364 43.4853 280.756 43.541C282.149 43.5967 283.508 43.9813 284.723 44.6633C285.937 45.3453 286.973 46.3053 287.745 47.4647C288.518 48.6241 289.004 49.9499 289.165 51.3334L289.2 51.3325L291.484 140.769C291.529 142.494 291.066 144.194 290.153 145.659C289.24 147.123 287.916 148.287 286.347 149.006ZM277.386 45.7783L14.1394 167.091C13.0877 167.576 12.1678 168.305 11.4569 169.219C10.746 170.133 10.265 171.204 10.0541 172.342C9.84331 173.48 9.9089 174.652 10.2454 175.76C10.5819 176.867 11.1794 177.878 11.9878 178.707L72.0847 240.317C73.128 241.383 74.4752 242.102 75.9422 242.374C77.4093 242.647 78.9247 242.46 80.2817 241.84L285.685 147.565C286.973 146.976 288.058 146.021 288.807 144.82C289.556 143.619 289.936 142.224 289.898 140.809L287.635 52.1654L287.952 52.1575L287.635 52.1654C287.605 50.9692 287.277 49.7993 286.683 48.7605C286.089 47.7218 285.246 46.8467 284.231 46.2137C283.215 45.5807 282.058 45.2096 280.863 45.1336C279.669 45.0576 278.474 45.2791 277.386 45.7783Z" fill="#CACACA"/>
<path d="M157.54 276.543L93.5451 305.915C93.0807 306.129 92.5788 306.249 92.0679 306.269C91.5571 306.288 91.0474 306.207 90.568 306.03C90.0886 305.852 89.6488 305.582 89.2739 305.235C88.8989 304.887 88.5962 304.469 88.3829 304.005C88.1696 303.541 88.0499 303.039 88.0308 302.528C88.0116 302.017 88.0933 301.508 88.2713 301.029C88.4492 300.55 88.7198 300.11 89.0677 299.736C89.4155 299.361 89.8338 299.059 90.2986 298.846L154.294 269.474C155.231 269.045 156.301 269.005 157.268 269.364C158.234 269.723 159.019 270.451 159.449 271.387C159.88 272.324 159.92 273.394 159.562 274.36C159.204 275.327 158.477 276.112 157.54 276.543Z" fill="white"/>
<path d="M204.358 185.765C205.457 188.151 206.074 190.73 206.175 193.354C206.276 195.979 205.858 198.598 204.946 201.061C204.034 203.524 202.645 205.784 200.859 207.71C199.073 209.637 196.925 211.192 194.537 212.288C192.149 213.384 189.569 213.999 186.943 214.097C184.318 214.196 181.698 213.776 179.235 212.862C176.772 211.948 174.513 210.557 172.588 208.77C170.662 206.983 169.108 204.833 168.014 202.445" fill="#CACACA"/>
<path d="M348.647 401.011H64.1475C60.1 401.006 56.2195 399.397 53.3575 396.536C50.4955 393.675 48.8856 389.796 48.881 385.749V232.881C48.8857 228.834 50.4956 224.955 53.3576 222.094C56.2196 219.233 60.1 217.624 64.1475 217.619H348.647C352.695 217.624 356.575 219.233 359.437 222.094C362.299 224.955 363.909 228.834 363.914 232.881V385.749C363.909 389.796 362.299 393.675 359.437 396.536C356.575 399.397 352.695 401.006 348.647 401.011Z" fill="white"/>
<path d="M64.1475 227.923C62.8326 227.924 61.572 228.447 60.6422 229.377C59.7125 230.306 59.1895 231.566 59.188 232.881V385.749C59.1895 387.064 59.7125 388.324 60.6422 389.254C61.572 390.183 62.8326 390.706 64.1475 390.707H348.647C349.962 390.706 351.223 390.183 352.153 389.254C353.082 388.324 353.605 387.064 353.607 385.749V232.881C353.605 231.566 353.082 230.306 352.153 229.377C351.223 228.447 349.962 227.924 348.647 227.923H64.1475Z" fill="#54E346"/>
<path d="M348.647 401.011H64.1475C60.1 401.006 56.2195 399.397 53.3575 396.536C50.4955 393.675 48.8856 389.796 48.881 385.749V232.881C48.8857 228.834 50.4956 224.955 53.3576 222.094C56.2196 219.233 60.1 217.624 64.1475 217.619H348.647C352.695 217.624 356.575 219.233 359.437 222.094C362.299 224.955 363.909 228.834 363.914 232.881V385.749C363.909 389.796 362.299 393.675 359.437 396.536C356.575 399.397 352.695 401.006 348.647 401.011ZM64.1475 219.204C60.5204 219.208 57.043 220.651 54.4783 223.215C51.9135 225.778 50.4708 229.255 50.4667 232.881V385.749C50.4708 389.375 51.9135 392.852 54.4783 395.415C57.043 397.979 60.5204 399.422 64.1475 399.426H348.647C352.274 399.422 355.752 397.979 358.317 395.415C360.881 392.852 362.324 389.375 362.328 385.749V232.881C362.324 229.255 360.881 225.778 358.317 223.215C355.752 220.651 352.274 219.208 348.647 219.204H64.1475Z" fill="#3F3D56"/>
<path d="M316.247 316.77H90.2286C88.4094 316.768 86.6353 316.204 85.1485 315.156C83.6618 314.108 82.5348 312.627 81.9214 310.915L53.0203 229.857C52.5463 228.528 52.3985 227.104 52.5893 225.705C52.7801 224.307 53.3039 222.975 54.1167 221.821C54.9295 220.667 56.0075 219.725 57.2602 219.074C58.5128 218.423 59.9035 218.082 61.3153 218.08L351.175 217.635C352.569 217.633 353.943 217.961 355.185 218.593C356.427 219.224 357.501 220.14 358.321 221.267C359.14 222.394 359.681 223.698 359.899 225.074C360.116 226.45 360.005 227.857 359.574 229.182L359.606 229.196L324.353 311.427C323.674 313.014 322.544 314.366 321.103 315.316C319.661 316.266 317.973 316.772 316.247 316.77ZM351.188 219.22L61.3174 219.666C60.1595 219.667 59.0189 219.947 57.9915 220.481C56.9641 221.014 56.0799 221.787 55.4132 222.733C54.7466 223.68 54.3169 224.773 54.1604 225.919C54.0039 227.066 54.1252 228.234 54.5139 229.324L83.4149 310.382C83.918 311.786 84.8423 313.001 86.0618 313.861C87.2813 314.721 88.7364 315.183 90.2286 315.185H316.247C317.662 315.186 319.047 314.772 320.229 313.992C321.411 313.213 322.338 312.104 322.895 310.803L357.836 229.3L358.128 229.425L357.836 229.3C358.308 228.2 358.499 227 358.392 225.808C358.286 224.617 357.885 223.47 357.226 222.471C356.567 221.472 355.671 220.652 354.617 220.085C353.563 219.517 352.385 219.22 351.188 219.22Z" fill="#3F3D56"/>
<path d="M145.956 378.949H75.5386C74.5068 378.949 73.5173 378.539 72.7877 377.81C72.0581 377.08 71.6483 376.091 71.6483 375.06C71.6483 374.028 72.0581 373.039 72.7877 372.31C73.5173 371.58 74.5068 371.171 75.5386 371.171H145.956C146.988 371.171 147.978 371.58 148.707 372.31C149.437 373.039 149.847 374.028 149.847 375.06C149.847 376.091 149.437 377.08 148.707 377.81C147.978 378.539 146.988 378.949 145.956 378.949Z" fill="white"/>
<path d="M226.393 315.978C226.393 321.279 224.286 326.364 220.536 330.113C216.787 333.861 211.701 335.967 206.397 335.967C201.094 335.967 196.008 333.861 192.258 330.113C188.508 326.364 186.402 321.279 186.402 315.978" fill="#3F3D56"/>
<path d="M99.8979 86.1503C103.839 86.1503 107.033 82.9566 107.033 79.0171C107.033 75.0775 103.839 71.8838 99.8979 71.8838C95.957 71.8838 92.7623 75.0775 92.7623 79.0171C92.7623 82.9566 95.957 86.1503 99.8979 86.1503Z" fill="#F0F0F0"/>
<path d="M7.13556 257.349C11.0764 257.349 14.2711 254.155 14.2711 250.216C14.2711 246.276 11.0764 243.082 7.13556 243.082C3.1947 243.082 0 246.276 0 250.216C0 254.155 3.1947 257.349 7.13556 257.349Z" fill="#F0F0F0"/>
<path d="M363.914 123.402C367.855 123.402 371.049 120.208 371.049 116.269C371.049 112.329 367.855 109.135 363.914 109.135C359.973 109.135 356.778 112.329 356.778 116.269C356.778 120.208 359.973 123.402 363.914 123.402Z" fill="#F0F0F0"/>
<path d="M486.056 419H350.247C349.997 419 349.757 418.901 349.58 418.724C349.403 418.547 349.303 418.307 349.303 418.056C349.303 417.806 349.403 417.566 349.58 417.389C349.757 417.212 349.997 417.113 350.247 417.113H486.056C486.306 417.113 486.545 417.213 486.722 417.39C486.898 417.567 486.997 417.806 486.997 418.056C486.997 418.306 486.898 418.546 486.722 418.723C486.545 418.9 486.306 418.999 486.056 419Z" fill="#CACACA"/>
</g>
<defs>
<clipPath id="clip0_43_81">
<rect width="487" height="419" fill="white"/>
</clipPath>
</defs>
</svg>
